<svg class="rich-terminal" viewBox="0 0 1373 733.1999999999999" xmlns="http://www.w3.org/2000/svg">
    <!-- Generated with Rich https://www.textualize.io -->
    <style>

    @font-face {
        font-family: "Fira Code";
        src: local("FiraCode-Regular"),
                url("https://cdnjs.cloudflare.com/ajax/libs/firacode/6.2.0/woff2/FiraCode-Regular.woff2") format("woff2"),
                url("https://cdnjs.cloudflare.com/ajax/libs/firacode/6.2.0/woff/FiraCode-Regular.woff") format("woff");
        font-style: normal;
        font-weight: 400;
    }
    @font-face {
        font-family: "Fira Code";
        src: local("FiraCode-Bold"),
                url("https://cdnjs.cloudflare.com/ajax/libs/firacode/6.2.0/woff2/FiraCode-Bold.woff2") format("woff2"),
                url("https://cdnjs.cloudflare.com/ajax/libs/firacode/6.2.0/woff/FiraCode-Bold.woff") format("woff");
        font-style: bold;
        font-weight: 700;
    }

    .terminal-3086165250-matrix {
        font-family: Fira Code, monospace;
        font-size: 20px;
        line-height: 24.4px;
        font-variant-east-asian: full-width;
    }

    .terminal-3086165250-title {
        font-size: 18px;
        font-weight: bold;
        font-family: arial;
    }

    .terminal-3086165250-r1 { fill: #c5c8c6 }
.terminal-3086165250-r2 { fill: #e0e0e0 }
.terminal-3086165250-r3 { fill: #a0a3a6 }
.terminal-3086165250-r4 { fill: #008000 }
.terminal-3086165250-r5 { fill: #ffa62b;font-weight: bold }
.terminal-3086165250-r6 { fill: #495259 }
    </style>

    <defs>
    <clipPath id="terminal-3086165250-clip-terminal">
      <rect x="0" y="0" width="1353.1999999999998" height="682.1999999999999" />
    </clipPath>
    <clipPath id="terminal-3086165250-line-0">
    <rect x="0" y="1.5" width="1354.2" height="24.65"/>
            </clipPath>
<clipPath id="terminal-3086165250-line-1">
    <rect x="0" y="25.9" width="1354.2" height="24.65"/>
            </clipPath>
<clipPath id="terminal-3086165250-line-2">
    <rect x="0" y="50.3" width="1354.2" height="24.65"/>
            </clipPath>
<clipPath id="terminal-3086165250-line-3">
    <rect x="0" y="74.7" width="1354.2" height="24.65"/>
            </clipPath>
<clipPath id="terminal-3086165250-line-4">
    <rect x="0" y="99.1" width="1354.2" height="24.65"/>
            </clipPath>
<clipPath id="terminal-3086165250-line-5">
    <rect x="0" y="123.5" width="1354.2" height="24.65"/>
            </clipPath>
<clipPath id="terminal-3086165250-line-6">
    <rect x="0" y="147.9" width="1354.2" height="24.65"/>
            </clipPath>
<clipPath id="terminal-3086165250-line-7">
    <rect x="0" y="172.3" width="1354.2" height="24.65"/>
            </clipPath>
<clipPath id="terminal-3086165250-line-8">
    <rect x="0" y="196.7" width="1354.2" height="24.65"/>
            </clipPath>
<clipPath id="terminal-3086165250-line-9">
    <rect x="0" y="221.1" width="1354.2" height="24.65"/>
            </clipPath>
<clipPath id="terminal-3086165250-line-10">
    <rect x="0" y="245.5" width="1354.2" height="24.65"/>
            </clipPath>
<clipPath id="terminal-3086165250-line-11">
    <rect x="0" y="269.9" width="1354.2" height="24.65"/>
            </clipPath>
<clipPath id="terminal-3086165250-line-12">
    <rect x="0" y="294.3" width="1354.2" height="24.65"/>
            </clipPath>
<clipPath id="terminal-3086165250-line-13">
    <rect x="0" y="318.7" width="1354.2" height="24.65"/>
            </clipPath>
<clipPath id="terminal-3086165250-line-14">
    <rect x="0" y="343.1" width="1354.2" height="24.65"/>
            </clipPath>
<clipPath id="terminal-3086165250-line-15">
    <rect x="0" y="367.5" width="1354.2" height="24.65"/>
            </clipPath>
<clipPath id="terminal-3086165250-line-16">
    <rect x="0" y="391.9" width="1354.2" height="24.65"/>
            </clipPath>
<clipPath id="terminal-3086165250-line-17">
    <rect x="0" y="416.3" width="1354.2" height="24.65"/>
            </clipPath>
<clipPath id="terminal-3086165250-line-18">
    <rect x="0" y="440.7" width="1354.2" height="24.65"/>
            </clipPath>
<clipPath id="terminal-3086165250-line-19">
    <rect x="0" y="465.1" width="1354.2" height="24.65"/>
            </clipPath>
<clipPath id="terminal-3086165250-line-20">
    <rect x="0" y="489.5" width="1354.2" height="24.65"/>
            </clipPath>
<clipPath id="terminal-3086165250-line-21">
    <rect x="0" y="513.9" width="1354.2" height="24.65"/>
            </clipPath>
<clipPath id="terminal-3086165250-line-22">
    <rect x="0" y="538.3" width="1354.2" height="24.65"/>
            </clipPath>
<clipPath id="terminal-3086165250-line-23">
    <rect x="0" y="562.7" width="1354.2" height="24.65"/>
            </clipPath>
<clipPath id="terminal-3086165250-line-24">
    <rect x="0" y="587.1" width="1354.2" height="24.65"/>
            </clipPath>
<clipPath id="terminal-3086165250-line-25">
    <rect x="0" y="611.5" width="1354.2" height="24.65"/>
            </clipPath>
<clipPath id="terminal-3086165250-line-26">
    <rect x="0" y="635.9" width="1354.2" height="24.65"/>
            </clipPath>
    </defs>

    <rect fill="#292929" stroke="rgba(255,255,255,0.35)" stroke-width="1" x="1" y="1" width="1371" height="731.2" rx="8"/><text class="terminal-3086165250-title" fill="#c5c8c6" text-anchor="middle" x="685" y="27">TUI&#160;PDF&#160;Viewer&#160;-&#160;sample.pdf</text>
            <g transform="translate(26,22)">
            <circle cx="0" cy="0" r="7" fill="#ff5f57"/>
            <circle cx="22" cy="0" r="7" fill="#febc2e"/>
            <circle cx="44" cy="0" r="7" fill="#28c840"/>
            </g>
        
    <g transform="translate(9, 41)" clip-path="url(#terminal-3086165250-clip-terminal)">
    <rect fill="#242f38" x="0" y="1.5" width="12.2" height="24.65" shape-rendering="crispEdges"/><rect fill="#242f38" x="12.2" y="1.5" width="12.2" height="24.65" shape-rendering="crispEdges"/><rect fill="#242f38" x="24.4" y="1.5" width="61" height="24.65" shape-rendering="crispEdges"/><rect fill="#242f38" x="85.4" y="1.5" width="12.2" height="24.65" shape-rendering="crispEdges"/><rect fill="#242f38" x="97.6" y="1.5" width="317.2" height="24.65" shape-rendering="crispEdges"/><rect fill="#242f38" x="414.8" y="1.5" width="329.4" height="24.65" shape-rendering="crispEdges"/><rect fill="#242f38" x="744.2" y="1.5" width="36.6" height="24.65" shape-rendering="crispEdges"/><rect fill="#242f38" x="780.8" y="1.5" width="134.2" height="24.65" shape-rendering="crispEdges"/><rect fill="#242f38" x="915" y="1.5" width="317.2" height="24.65" shape-rendering="crispEdges"/><rect fill="#242f38" x="1232.2" y="1.5" width="12.2" height="24.65" shape-rendering="crispEdges"/><rect fill="#242f38" x="1244.4" y="1.5" width="0" height="24.65" shape-rendering="crispEdges"/><rect fill="#242f38" x="1244.4" y="1.5" width="97.6" height="24.65" shape-rendering="crispEdges"/><rect fill="#242f38" x="1342" y="1.5" width="12.2" height="24.65" shape-rendering="crispEdges"/><rect fill="#121212" x="0" y="25.9" width="12.2" height="24.65" shape-rendering="crispEdges"/><rect fill="#121212" x="12.2" y="25.9" width="1329.8" height="24.65" shape-rendering="crispEdges"/><rect fill="#121212" x="1342" y="25.9" width="12.2" height="24.65" shape-rendering="crispEdges"/><rect fill="#121212" x="0" y="50.3" width="12.2" height="24.65" shape-rendering="crispEdges"/><rect fill="#121212" x="12.2" y="50.3" width="1329.8" height="24.65" shape-rendering="crispEdges"/><rect fill="#121212" x="1342" y="50.3" width="12.2" height="24.65" shape-rendering="crispEdges"/><rect fill="#121212" x="0" y="74.7" width="12.2" height="24.65" shape-rendering="crispEdges"/><rect fill="#121212" x="12.2" y="74.7" width="12.2" height="24.65" shape-rendering="crispEdges"/><rect fill="#121212" x="24.4" y="74.7" width="268.4" height="24.65" shape-rendering="crispEdges"/><rect fill="#121212" x="292.8" y="74.7" width="1037" height="24.65" shape-rendering="crispEdges"/><rect fill="#121212" x="1329.8" y="74.7" width="12.2" height="24.65" shape-rendering="crispEdges"/><rect fill="#121212" x="1342" y="74.7" width="12.2" height="24.65" shape-rendering="crispEdges"/><rect fill="#121212" x="0" y="99.1" width="12.2" height="24.65" shape-rendering="crispEdges"/><rect fill="#121212" x="12.2" y="99.1" width="12.2" height="24.65" shape-rendering="crispEdges"/><rect fill="#121212" x="24.4" y="99.1" width="183" height="24.65" shape-rendering="crispEdges"/><rect fill="#121212" x="207.4" y="99.1" width="1122.4" height="24.65" shape-rendering="crispEdges"/><rect fill="#121212" x="1329.8" y="99.1" width="12.2" height="24.65" shape-rendering="crispEdges"/><rect fill="#121212" x="1342" y="99.1" width="12.2" height="24.65" shape-rendering="crispEdges"/><rect fill="#121212" x="0" y="123.5" width="12.2" height="24.65" shape-rendering="crispEdges"/><rect fill="#121212" x="12.2" y="123.5" width="12.2" height="24.65" shape-rendering="crispEdges"/><rect fill="#121212" x="24.4" y="123.5" width="0" height="24.65" shape-rendering="crispEdges"/><rect fill="#121212" x="24.4" y="123.5" width="1305.4" height="24.65" shape-rendering="crispEdges"/><rect fill="#121212" x="1329.8" y="123.5" width="12.2" height="24.65" shape-rendering="crispEdges"/><rect fill="#121212" x="1342" y="123.5" width="12.2" height="24.65" shape-rendering="crispEdges"/><rect fill="#121212" x="0" y="147.9" width="12.2" height="24.65" shape-rendering="crispEdges"/><rect fill="#121212" x="12.2" y="147.9" width="12.2" height="24.65" shape-rendering="crispEdges"/><rect fill="#121212" x="24.4" y="147.9" width="1305.4" height="24.65" shape-rendering="crispEdges"/><rect fill="#121212" x="1329.8" y="147.9" width="12.2" height="24.65" shape-rendering="crispEdges"/><rect fill="#121212" x="1342" y="147.9" width="12.2" height="24.65" shape-rendering="crispEdges"/><rect fill="#121212" x="0" y="172.3" width="12.2" height="24.65" shape-rendering="crispEdges"/><rect fill="#121212" x="12.2" y="172.3" width="12.2" height="24.65" shape-rendering="crispEdges"/><rect fill="#121212" x="24.4" y="172.3" width="1305.4" height="24.65" shape-rendering="crispEdges"/><rect fill="#121212" x="1329.8" y="172.3" width="12.2" height="24.65" shape-rendering="crispEdges"/><rect fill="#121212" x="1342" y="172.3" width="12.2" height="24.65" shape-rendering="crispEdges"/><rect fill="#121212" x="0" y="196.7" width="12.2" height="24.65" shape-rendering="crispEdges"/><rect fill="#121212" x="12.2" y="196.7" width="12.2" height="24.65" shape-rendering="crispEdges"/><rect fill="#121212" x="24.4" y="196.7" width="1305.4" height="24.65" shape-rendering="crispEdges"/><rect fill="#121212" x="1329.8" y="196.7" width="12.2" height="24.65" shape-rendering="crispEdges"/><rect fill="#121212" x="1342" y="196.7" width="12.2" height="24.65" shape-rendering="crispEdges"/><rect fill="#121212" x="0" y="221.1" width="12.2" height="24.65" shape-rendering="crispEdges"/><rect fill="#121212" x="12.2" y="221.1" width="12.2" height="24.65" shape-rendering="crispEdges"/><rect fill="#121212" x="24.4" y="221.1" width="1305.4" height="24.65" shape-rendering="crispEdges"/><rect fill="#121212" x="1329.8" y="221.1" width="12.2" height="24.65" shape-rendering="crispEdges"/><rect fill="#121212" x="1342" y="221.1" width="12.2" height="24.65" shape-rendering="crispEdges"/><rect fill="#121212" x="0" y="245.5" width="12.2" height="24.65" shape-rendering="crispEdges"/><rect fill="#121212" x="12.2" y="245.5" width="12.2" height="24.65" shape-rendering="crispEdges"/><rect fill="#121212" x="24.4" y="245.5" width="1305.4" height="24.65" shape-rendering="crispEdges"/><rect fill="#121212" x="1329.8" y="245.5" width="12.2" height="24.65" shape-rendering="crispEdges"/><rect fill="#121212" x="1342" y="245.5" width="12.2" height="24.65" shape-rendering="crispEdges"/><rect fill="#121212" x="0" y="269.9" width="12.2" height="24.65" shape-rendering="crispEdges"/><rect fill="#121212" x="12.2" y="269.9" width="12.2" height="24.65" shape-rendering="crispEdges"/><rect fill="#121212" x="24.4" y="269.9" width="1305.4" height="24.65" shape-rendering="crispEdges"/><rect fill="#121212" x="1329.8" y="269.9" width="12.2" height="24.65" shape-rendering="crispEdges"/><rect fill="#121212" x="1342" y="269.9" width="12.2" height="24.65" shape-rendering="crispEdges"/><rect fill="#121212" x="0" y="294.3" width="12.2" height="24.65" shape-rendering="crispEdges"/><rect fill="#121212" x="12.2" y="294.3" width="12.2" height="24.65" shape-rendering="crispEdges"/><rect fill="#121212" x="24.4" y="294.3" width="1305.4" height="24.65" shape-rendering="crispEdges"/><rect fill="#121212" x="1329.8" y="294.3" width="12.2" height="24.65" shape-rendering="crispEdges"/><rect fill="#121212" x="1342" y="294.3" width="12.2" height="24.65" shape-rendering="crispEdges"/><rect fill="#121212" x="0" y="318.7" width="12.2" height="24.65" shape-rendering="crispEdges"/><rect fill="#121212" x="12.2" y="318.7" width="12.2" height="24.65" shape-rendering="crispEdges"/><rect fill="#121212" x="24.4" y="318.7" width="1305.4" height="24.65" shape-rendering="crispEdges"/><rect fill="#121212" x="1329.8" y="318.7" width="12.2" height="24.65" shape-rendering="crispEdges"/><rect fill="#121212" x="1342" y="318.7" width="12.2" height="24.65" shape-rendering="crispEdges"/><rect fill="#121212" x="0" y="343.1" width="12.2" height="24.65" shape-rendering="crispEdges"/><rect fill="#121212" x="12.2" y="343.1" width="12.2" height="24.65" shape-rendering="crispEdges"/><rect fill="#121212" x="24.4" y="343.1" width="1305.4" height="24.65" shape-rendering="crispEdges"/><rect fill="#121212" x="1329.8" y="343.1" width="12.2" height="24.65" shape-rendering="crispEdges"/><rect fill="#121212" x="1342" y="343.1" width="12.2" height="24.65" shape-rendering="crispEdges"/><rect fill="#121212" x="0" y="367.5" width="12.2" height="24.65" shape-rendering="crispEdges"/><rect fill="#121212" x="12.2" y="367.5" width="12.2" height="24.65" shape-rendering="crispEdges"/><rect fill="#121212" x="24.4" y="367.5" width="1305.4" height="24.65" shape-rendering="crispEdges"/><rect fill="#121212" x="1329.8" y="367.5" width="12.2" height="24.65" shape-rendering="crispEdges"/><rect fill="#121212" x="1342" y="367.5" width="12.2" height="24.65" shape-rendering="crispEdges"/><rect fill="#121212" x="0" y="391.9" width="12.2" height="24.65" shape-rendering="crispEdges"/><rect fill="#121212" x="12.2" y="391.9" width="12.2" height="24.65" shape-rendering="crispEdges"/><rect fill="#121212" x="24.4" y="391.9" width="1305.4" height="24.65" shape-rendering="crispEdges"/><rect fill="#121212" x="1329.8" y="391.9" width="12.2" height="24.65" shape-rendering="crispEdges"/><rect fill="#121212" x="1342" y="391.9" width="12.2" height="24.65" shape-rendering="crispEdges"/><rect fill="#121212" x="0" y="416.3" width="12.2" height="24.65" shape-rendering="crispEdges"/><rect fill="#121212" x="12.2" y="416.3" width="12.2" height="24.65" shape-rendering="crispEdges"/><rect fill="#121212" x="24.4" y="416.3" width="1305.4" height="24.65" shape-rendering="crispEdges"/><rect fill="#121212" x="1329.8" y="416.3" width="12.2" height="24.65" shape-rendering="crispEdges"/><rect fill="#121212" x="1342" y="416.3" width="12.2" height="24.65" shape-rendering="crispEdges"/><rect fill="#121212" x="0" y="440.7" width="12.2" height="24.65" shape-rendering="crispEdges"/><rect fill="#121212" x="12.2" y="440.7" width="12.2" height="24.65" shape-rendering="crispEdges"/><rect fill="#121212" x="24.4" y="440.7" width="1305.4" height="24.65" shape-rendering="crispEdges"/><rect fill="#121212" x="1329.8" y="440.7" width="12.2" height="24.65" shape-rendering="crispEdges"/><rect fill="#121212" x="1342" y="440.7" width="12.2" height="24.65" shape-rendering="crispEdges"/><rect fill="#121212" x="0" y="465.1" width="12.2" height="24.65" shape-rendering="crispEdges"/><rect fill="#121212" x="12.2" y="465.1" width="12.2" height="24.65" shape-rendering="crispEdges"/><rect fill="#121212" x="24.4" y="465.1" width="1305.4" height="24.65" shape-rendering="crispEdges"/><rect fill="#121212" x="1329.8" y="465.1" width="12.2" height="24.65" shape-rendering="crispEdges"/><rect fill="#121212" x="1342" y="465.1" width="12.2" height="24.65" shape-rendering="crispEdges"/><rect fill="#121212" x="0" y="489.5" width="12.2" height="24.65" shape-rendering="crispEdges"/><rect fill="#121212" x="12.2" y="489.5" width="12.2" height="24.65" shape-rendering="crispEdges"/><rect fill="#121212" x="24.4" y="489.5" width="1305.4" height="24.65" shape-rendering="crispEdges"/><rect fill="#121212" x="1329.8" y="489.5" width="12.2" height="24.65" shape-rendering="crispEdges"/><rect fill="#121212" x="1342" y="489.5" width="12.2" height="24.65" shape-rendering="crispEdges"/><rect fill="#121212" x="0" y="513.9" width="12.2" height="24.65" shape-rendering="crispEdges"/><rect fill="#121212" x="12.2" y="513.9" width="12.2" height="24.65" shape-rendering="crispEdges"/><rect fill="#121212" x="24.4" y="513.9" width="1305.4" height="24.65" shape-rendering="crispEdges"/><rect fill="#121212" x="1329.8" y="513.9" width="12.2" height="24.65" shape-rendering="crispEdges"/><rect fill="#121212" x="1342" y="513.9" width="12.2" height="24.65" shape-rendering="crispEdges"/><rect fill="#121212" x="0" y="538.3" width="12.2" height="24.65" shape-rendering="crispEdges"/><rect fill="#121212" x="12.2" y="538.3" width="12.2" height="24.65" shape-rendering="crispEdges"/><rect fill="#121212" x="24.4" y="538.3" width="1305.4" height="24.65" shape-rendering="crispEdges"/><rect fill="#121212" x="1329.8" y="538.3" width="12.2" height="24.65" shape-rendering="crispEdges"/><rect fill="#121212" x="1342" y="538.3" width="12.2" height="24.65" shape-rendering="crispEdges"/><rect fill="#121212" x="0" y="562.7" width="12.2" height="24.65" shape-rendering="crispEdges"/><rect fill="#121212" x="12.2" y="562.7" width="12.2" height="24.65" shape-rendering="crispEdges"/><rect fill="#121212" x="24.4" y="562.7" width="1305.4" height="24.65" shape-rendering="crispEdges"/><rect fill="#121212" x="1329.8" y="562.7" width="12.2" height="24.65" shape-rendering="crispEdges"/><rect fill="#121212" x="1342" y="562.7" width="12.2" height="24.65" shape-rendering="crispEdges"/><rect fill="#121212" x="0" y="587.1" width="12.2" height="24.65" shape-rendering="crispEdges"/><rect fill="#121212" x="12.2" y="587.1" width="12.2" height="24.65" shape-rendering="crispEdges"/><rect fill="#121212" x="24.4" y="587.1" width="1305.4" height="24.65" shape-rendering="crispEdges"/><rect fill="#121212" x="1329.8" y="587.1" width="12.2" height="24.65" shape-rendering="crispEdges"/><rect fill="#121212" x="1342" y="587.1" width="12.2" height="24.65" shape-rendering="crispEdges"/><rect fill="#121212" x="0" y="611.5" width="12.2" height="24.65" shape-rendering="crispEdges"/><rect fill="#121212" x="12.2" y="611.5" width="1329.8" height="24.65" shape-rendering="crispEdges"/><rect fill="#121212" x="1342" y="611.5" width="12.2" height="24.65" shape-rendering="crispEdges"/><rect fill="#121212" x="0" y="635.9" width="12.2" height="24.65" shape-rendering="crispEdges"/><rect fill="#121212" x="12.2" y="635.9" width="1329.8" height="24.65" shape-rendering="crispEdges"/><rect fill="#121212" x="1342" y="635.9" width="12.2" height="24.65" shape-rendering="crispEdges"/><rect fill="#242f38" x="0" y="660.3" width="36.6" height="24.65" shape-rendering="crispEdges"/><rect fill="#242f38" x="36.6" y="660.3" width="207.4" height="24.65" shape-rendering="crispEdges"/><rect fill="#242f38" x="244" y="660.3" width="36.6" height="24.65" shape-rendering="crispEdges"/><rect fill="#242f38" x="280.6" y="660.3" width="61" height="24.65" shape-rendering="crispEdges"/><rect fill="#242f38" x="341.6" y="660.3" width="36.6" height="24.65" shape-rendering="crispEdges"/><rect fill="#242f38" x="378.2" y="660.3" width="122" height="24.65" shape-rendering="crispEdges"/><rect fill="#242f38" x="500.2" y="660.3" width="36.6" height="24.65" shape-rendering="crispEdges"/><rect fill="#242f38" x="536.8" y="660.3" width="170.8" height="24.65" shape-rendering="crispEdges"/><rect fill="#242f38" x="707.6" y="660.3" width="36.6" height="24.65" shape-rendering="crispEdges"/><rect fill="#242f38" x="744.2" y="660.3" width="134.2" height="24.65" shape-rendering="crispEdges"/><rect fill="#242f38" x="878.4" y="660.3" width="36.6" height="24.65" shape-rendering="crispEdges"/><rect fill="#242f38" x="915" y="660.3" width="122" height="24.65" shape-rendering="crispEdges"/><rect fill="#242f38" x="1037" y="660.3" width="36.6" height="24.65" shape-rendering="crispEdges"/><rect fill="#242f38" x="1073.6" y="660.3" width="61" height="24.65" shape-rendering="crispEdges"/><rect fill="#242f38" x="1134.6" y="660.3" width="73.2" height="24.65" shape-rendering="crispEdges"/><rect fill="#242f38" x="1207.8" y="660.3" width="12.2" height="24.65" shape-rendering="crispEdges"/><rect fill="#242f38" x="1220" y="660.3" width="24.4" height="24.65" shape-rendering="crispEdges"/><rect fill="#242f38" x="1244.4" y="660.3" width="97.6" height="24.65" shape-rendering="crispEdges"/><rect fill="#242f38" x="1342" y="660.3" width="12.2" height="24.65" shape-rendering="crispEdges"/>
    <g class="terminal-3086165250-matrix">
    <text class="terminal-3086165250-r2" x="12.2" y="20" textLength="12.2" clip-path="url(#terminal-3086165250-line-0)">⭘</text><text class="terminal-3086165250-r2" x="414.8" y="20" textLength="329.4" clip-path="url(#terminal-3086165250-line-0)">TUI&#160;PDF&#160;Viewer&#160;-&#160;sample.pdf</text><text class="terminal-3086165250-r3" x="744.2" y="20" textLength="36.6" clip-path="url(#terminal-3086165250-line-0)">&#160;—&#160;</text><text class="terminal-3086165250-r3" x="780.8" y="20" textLength="134.2" clip-path="url(#terminal-3086165250-line-0)">Page&#160;1&#160;of&#160;2</text><text class="terminal-3086165250-r1" x="1354.2" y="20" textLength="12.2" clip-path="url(#terminal-3086165250-line-0)">
</text><text class="terminal-3086165250-r4" x="0" y="44.4" textLength="12.2" clip-path="url(#terminal-3086165250-line-1)">┌</text><text class="terminal-3086165250-r4" x="12.2" y="44.4" textLength="1329.8" clip-path="url(#terminal-3086165250-line-1)">─────────────────────────────────────────────────────────────────────────────────────────────────────────────</text><text class="terminal-3086165250-r4" x="1342" y="44.4" textLength="12.2" clip-path="url(#terminal-3086165250-line-1)">┐</text><text class="terminal-3086165250-r1" x="1354.2" y="44.4" textLength="12.2" clip-path="url(#terminal-3086165250-line-1)">
</text><text class="terminal-3086165250-r4" x="0" y="68.8" textLength="12.2" clip-path="url(#terminal-3086165250-line-2)">│</text><text class="terminal-3086165250-r4" x="1342" y="68.8" textLength="12.2" clip-path="url(#terminal-3086165250-line-2)">│</text><text class="terminal-3086165250-r1" x="1354.2" y="68.8" textLength="12.2" clip-path="url(#terminal-3086165250-line-2)">
</text><text class="terminal-3086165250-r4" x="0" y="93.2" textLength="12.2" clip-path="url(#terminal-3086165250-line-3)">│</text><text class="terminal-3086165250-r2" x="24.4" y="93.2" textLength="268.4" clip-path="url(#terminal-3086165250-line-3)">Hello,&#160;TUI&#160;PDF&#160;Viewer!</text><text class="terminal-3086165250-r4" x="1342" y="93.2" textLength="12.2" clip-path="url(#terminal-3086165250-line-3)">│</text><text class="terminal-3086165250-r1" x="1354.2" y="93.2" textLength="12.2" clip-path="url(#terminal-3086165250-line-3)">
</text><text class="terminal-3086165250-r4" x="0" y="117.6" textLength="12.2" clip-path="url(#terminal-3086165250-line-4)">│</text><text class="terminal-3086165250-r2" x="24.4" y="117.6" textLength="183" clip-path="url(#terminal-3086165250-line-4)">This&#160;is&#160;page&#160;1.</text><text class="terminal-3086165250-r4" x="1342" y="117.6" textLength="12.2" clip-path="url(#terminal-3086165250-line-4)">│</text><text class="terminal-3086165250-r1" x="1354.2" y="117.6" textLength="12.2" clip-path="url(#terminal-3086165250-line-4)">
</text><text class="terminal-3086165250-r4" x="0" y="142" textLength="12.2" clip-path="url(#terminal-3086165250-line-5)">│</text><text class="terminal-3086165250-r4" x="1342" y="142" textLength="12.2" clip-path="url(#terminal-3086165250-line-5)">│</text><text class="terminal-3086165250-r1" x="1354.2" y="142" textLength="12.2" clip-path="url(#terminal-3086165250-line-5)">
</text><text class="terminal-3086165250-r4" x="0" y="166.4" textLength="12.2" clip-path="url(#terminal-3086165250-line-6)">│</text><text class="terminal-3086165250-r4" x="1342" y="166.4" textLength="12.2" clip-path="url(#terminal-3086165250-line-6)">│</text><text class="terminal-3086165250-r1" x="1354.2" y="166.4" textLength="12.2" clip-path="url(#terminal-3086165250-line-6)">
</text><text class="terminal-3086165250-r4" x="0" y="190.8" textLength="12.2" clip-path="url(#terminal-3086165250-line-7)">│</text><text class="terminal-3086165250-r4" x="1342" y="190.8" textLength="12.2" clip-path="url(#terminal-3086165250-line-7)">│</text><text class="terminal-3086165250-r1" x="1354.2" y="190.8" textLength="12.2" clip-path="url(#terminal-3086165250-line-7)">
</text><text class="terminal-3086165250-r4" x="0" y="215.2" textLength="12.2" clip-path="url(#terminal-3086165250-line-8)">│</text><text class="terminal-3086165250-r4" x="1342" y="215.2" textLength="12.2" clip-path="url(#terminal-3086165250-line-8)">│</text><text class="terminal-3086165250-r1" x="1354.2" y="215.2" textLength="12.2" clip-path="url(#terminal-3086165250-line-8)">
</text><text class="terminal-3086165250-r4" x="0" y="239.6" textLength="12.2" clip-path="url(#terminal-3086165250-line-9)">│</text><text class="terminal-3086165250-r4" x="1342" y="239.6" textLength="12.2" clip-path="url(#terminal-3086165250-line-9)">│</text><text class="terminal-3086165250-r1" x="1354.2" y="239.6" textLength="12.2" clip-path="url(#terminal-3086165250-line-9)">
</text><text class="terminal-3086165250-r4" x="0" y="264" textLength="12.2" clip-path="url(#terminal-3086165250-line-10)">│</text><text class="terminal-3086165250-r4" x="1342" y="264" textLength="12.2" clip-path="url(#terminal-3086165250-line-10)">│</text><text class="terminal-3086165250-r1" x="1354.2" y="264" textLength="12.2" clip-path="url(#terminal-3086165250-line-10)">
</text><text class="terminal-3086165250-r4" x="0" y="288.4" textLength="12.2" clip-path="url(#terminal-3086165250-line-11)">│</text><text class="terminal-3086165250-r4" x="1342" y="288.4" textLength="12.2" clip-path="url(#terminal-3086165250-line-11)">│</text><text class="terminal-3086165250-r1" x="1354.2" y="288.4" textLength="12.2" clip-path="url(#terminal-3086165250-line-11)">
</text><text class="terminal-3086165250-r4" x="0" y="312.8" textLength="12.2" clip-path="url(#terminal-3086165250-line-12)">│</text><text class="terminal-3086165250-r4" x="1342" y="312.8" textLength="12.2" clip-path="url(#terminal-3086165250-line-12)">│</text><text class="terminal-3086165250-r1" x="1354.2" y="312.8" textLength="12.2" clip-path="url(#terminal-3086165250-line-12)">
</text><text class="terminal-3086165250-r4" x="0" y="337.2" textLength="12.2" clip-path="url(#terminal-3086165250-line-13)">│</text><text class="terminal-3086165250-r4" x="1342" y="337.2" textLength="12.2" clip-path="url(#terminal-3086165250-line-13)">│</text><text class="terminal-3086165250-r1" x="1354.2" y="337.2" textLength="12.2" clip-path="url(#terminal-3086165250-line-13)">
</text><text class="terminal-3086165250-r4" x="0" y="361.6" textLength="12.2" clip-path="url(#terminal-3086165250-line-14)">│</text><text class="terminal-3086165250-r4" x="1342" y="361.6" textLength="12.2" clip-path="url(#terminal-3086165250-line-14)">│</text><text class="terminal-3086165250-r1" x="1354.2" y="361.6" textLength="12.2" clip-path="url(#terminal-3086165250-line-14)">
</text><text class="terminal-3086165250-r4" x="0" y="386" textLength="12.2" clip-path="url(#terminal-3086165250-line-15)">│</text><text class="terminal-3086165250-r4" x="1342" y="386" textLength="12.2" clip-path="url(#terminal-3086165250-line-15)">│</text><text class="terminal-3086165250-r1" x="1354.2" y="386" textLength="12.2" clip-path="url(#terminal-3086165250-line-15)">
</text><text class="terminal-3086165250-r4" x="0" y="410.4" textLength="12.2" clip-path="url(#terminal-3086165250-line-16)">│</text><text class="terminal-3086165250-r4" x="1342" y="410.4" textLength="12.2" clip-path="url(#terminal-3086165250-line-16)">│</text><text class="terminal-3086165250-r1" x="1354.2" y="410.4" textLength="12.2" clip-path="url(#terminal-3086165250-line-16)">
</text><text class="terminal-3086165250-r4" x="0" y="434.8" textLength="12.2" clip-path="url(#terminal-3086165250-line-17)">│</text><text class="terminal-3086165250-r4" x="1342" y="434.8" textLength="12.2" clip-path="url(#terminal-3086165250-line-17)">│</text><text class="terminal-3086165250-r1" x="1354.2" y="434.8" textLength="12.2" clip-path="url(#terminal-3086165250-line-17)">
</text><text class="terminal-3086165250-r4" x="0" y="459.2" textLength="12.2" clip-path="url(#terminal-3086165250-line-18)">│</text><text class="terminal-3086165250-r4" x="1342" y="459.2" textLength="12.2" clip-path="url(#terminal-3086165250-line-18)">│</text><text class="terminal-3086165250-r1" x="1354.2" y="459.2" textLength="12.2" clip-path="url(#terminal-3086165250-line-18)">
</text><text class="terminal-3086165250-r4" x="0" y="483.6" textLength="12.2" clip-path="url(#terminal-3086165250-line-19)">│</text><text class="terminal-3086165250-r4" x="1342" y="483.6" textLength="12.2" clip-path="url(#terminal-3086165250-line-19)">│</text><text class="terminal-3086165250-r1" x="1354.2" y="483.6" textLength="12.2" clip-path="url(#terminal-3086165250-line-19)">
</text><text class="terminal-3086165250-r4" x="0" y="508" textLength="12.2" clip-path="url(#terminal-3086165250-line-20)">│</text><text class="terminal-3086165250-r4" x="1342" y="508" textLength="12.2" clip-path="url(#terminal-3086165250-line-20)">│</text><text class="terminal-3086165250-r1" x="1354.2" y="508" textLength="12.2" clip-path="url(#terminal-3086165250-line-20)">
</text><text class="terminal-3086165250-r4" x="0" y="532.4" textLength="12.2" clip-path="url(#terminal-3086165250-line-21)">│</text><text class="terminal-3086165250-r4" x="1342" y="532.4" textLength="12.2" clip-path="url(#terminal-3086165250-line-21)">│</text><text class="terminal-3086165250-r1" x="1354.2" y="532.4" textLength="12.2" clip-path="url(#terminal-3086165250-line-21)">
</text><text class="terminal-3086165250-r4" x="0" y="556.8" textLength="12.2" clip-path="url(#terminal-3086165250-line-22)">│</text><text class="terminal-3086165250-r4" x="1342" y="556.8" textLength="12.2" clip-path="url(#terminal-3086165250-line-22)">│</text><text class="terminal-3086165250-r1" x="1354.2" y="556.8" textLength="12.2" clip-path="url(#terminal-3086165250-line-22)">
</text><text class="terminal-3086165250-r4" x="0" y="581.2" textLength="12.2" clip-path="url(#terminal-3086165250-line-23)">│</text><text class="terminal-3086165250-r4" x="1342" y="581.2" textLength="12.2" clip-path="url(#terminal-3086165250-line-23)">│</text><text class="terminal-3086165250-r1" x="1354.2" y="581.2" textLength="12.2" clip-path="url(#terminal-3086165250-line-23)">
</text><text class="terminal-3086165250-r4" x="0" y="605.6" textLength="12.2" clip-path="url(#terminal-3086165250-line-24)">│</text><text class="terminal-3086165250-r4" x="1342" y="605.6" textLength="12.2" clip-path="url(#terminal-3086165250-line-24)">│</text><text class="terminal-3086165250-r1" x="1354.2" y="605.6" textLength="12.2" clip-path="url(#terminal-3086165250-line-24)">
</text><text class="terminal-3086165250-r4" x="0" y="630" textLength="12.2" clip-path="url(#terminal-3086165250-line-25)">│</text><text class="terminal-3086165250-r4" x="1342" y="630" textLength="12.2" clip-path="url(#terminal-3086165250-line-25)">│</text><text class="terminal-3086165250-r1" x="1354.2" y="630" textLength="12.2" clip-path="url(#terminal-3086165250-line-25)">
</text><text class="terminal-3086165250-r4" x="0" y="654.4" textLength="12.2" clip-path="url(#terminal-3086165250-line-26)">└</text><text class="terminal-3086165250-r4" x="12.2" y="654.4" textLength="1329.8" clip-path="url(#terminal-3086165250-line-26)">─────────────────────────────────────────────────────────────────────────────────────────────────────────────</text><text class="terminal-3086165250-r4" x="1342" y="654.4" textLength="12.2" clip-path="url(#terminal-3086165250-line-26)">┘</text><text class="terminal-3086165250-r1" x="1354.2" y="654.4" textLength="12.2" clip-path="url(#terminal-3086165250-line-26)">
</text><text class="terminal-3086165250-r5" x="0" y="678.8" textLength="36.6" clip-path="url(#terminal-3086165250-line-27)">&#160;d&#160;</text><text class="terminal-3086165250-r2" x="36.6" y="678.8" textLength="207.4" clip-path="url(#terminal-3086165250-line-27)">Toggle&#160;Dark&#160;Mode&#160;</text><text class="terminal-3086165250-r5" x="244" y="678.8" textLength="36.6" clip-path="url(#terminal-3086165250-line-27)">&#160;q&#160;</text><text class="terminal-3086165250-r2" x="280.6" y="678.8" textLength="61" clip-path="url(#terminal-3086165250-line-27)">Quit&#160;</text><text class="terminal-3086165250-r5" x="341.6" y="678.8" textLength="36.6" clip-path="url(#terminal-3086165250-line-27)">&#160;n&#160;</text><text class="terminal-3086165250-r2" x="378.2" y="678.8" textLength="122" clip-path="url(#terminal-3086165250-line-27)">Next&#160;Page&#160;</text><text class="terminal-3086165250-r5" x="500.2" y="678.8" textLength="36.6" clip-path="url(#terminal-3086165250-line-27)">&#160;p&#160;</text><text class="terminal-3086165250-r2" x="536.8" y="678.8" textLength="170.8" clip-path="url(#terminal-3086165250-line-27)">Previous&#160;Page&#160;</text><text class="terminal-3086165250-r5" x="707.6" y="678.8" textLength="36.6" clip-path="url(#terminal-3086165250-line-27)">&#160;g&#160;</text><text class="terminal-3086165250-r2" x="744.2" y="678.8" textLength="134.2" clip-path="url(#terminal-3086165250-line-27)">Go&#160;to&#160;Page&#160;</text><text class="terminal-3086165250-r5" x="878.4" y="678.8" textLength="36.6" clip-path="url(#terminal-3086165250-line-27)">&#160;o&#160;</text><text class="terminal-3086165250-r2" x="915" y="678.8" textLength="122" clip-path="url(#terminal-3086165250-line-27)">Open&#160;File&#160;</text><text class="terminal-3086165250-r5" x="1037" y="678.8" textLength="36.6" clip-path="url(#terminal-3086165250-line-27)">&#160;?&#160;</text><text class="terminal-3086165250-r2" x="1073.6" y="678.8" textLength="61" clip-path="url(#terminal-3086165250-line-27)">Help&#160;</text><text class="terminal-3086165250-r6" x="1207.8" y="678.8" textLength="12.2" clip-path="url(#terminal-3086165250-line-27)">▏</text><text class="terminal-3086165250-r5" x="1220" y="678.8" textLength="24.4" clip-path="url(#terminal-3086165250-line-27)">^p</text><text class="terminal-3086165250-r2" x="1244.4" y="678.8" textLength="97.6" clip-path="url(#terminal-3086165250-line-27)">&#160;palette</text>
    </g>
    </g>
</svg>
